<?xml version="1.0" encoding="UTF-8"?><svg xmlns="http://www.w3.org/2000/svg" xmlns:xlink="http://www.w3.org/1999/xlink" id="Layer_1" viewBox="0 0 168.06 36.74"><defs><style>.cls-1{fill:url(#linear-gradient);}.cls-1,.cls-2,.cls-3,.cls-4,.cls-5,.cls-6,.cls-7{stroke-width:0px;}.cls-2{fill:#231f20;}.cls-3{fill:url(#linear-gradient-2);}.cls-4{fill:#d8bda5;}.cls-5{fill:url(#linear-gradient-3);}.cls-6{fill:url(#radial-gradient);}.cls-7{fill:url(#linear-gradient-4);}</style><radialGradient id="radial-gradient" cx="17.85" cy="1053.84" fx="17.85" fy="1053.84" r="17.85" gradientTransform="translate(0 -1036)" gradientUnits="userSpaceOnUse"><stop offset="0" stop-color="#fee077"/><stop offset="1" stop-color="#fdd800"/></radialGradient><linearGradient id="linear-gradient" x1="26.1" y1="1070.04" x2="26.1" y2="1052.48" gradientTransform="translate(0 -1036)" gradientUnits="userSpaceOnUse"><stop offset="0" stop-color="#f26522"/><stop offset="1" stop-color="#f3a81d"/></linearGradient><linearGradient id="linear-gradient-2" x1="23.18" y1="1071.71" x2="23.18" y2="1054.08" gradientTransform="translate(0 -1036)" gradientUnits="userSpaceOnUse"><stop offset="0" stop-color="#c41d63"/><stop offset="1" stop-color="#e4126e"/></linearGradient><linearGradient id="linear-gradient-3" x1="20.12" y1="1072.74" x2="20.12" y2="1055.63" gradientTransform="translate(0 -1036)" gradientUnits="userSpaceOnUse"><stop offset="0" stop-color="#2960ad"/><stop offset="1" stop-color="#1a90cf"/></linearGradient><linearGradient id="linear-gradient-4" x1="-2193.79" y1="-1494.97" x2="-2193.79" y2="-1496.45" gradientTransform="translate(-2621.18 -303.55) rotate(152.53)" xlink:href="#linear-gradient-3"/></defs><path class="cls-2" d="M46.97,17.8c0-4.29,2.83-7.93,7.6-7.93,4.18,0,6.69,2.57,7.26,5.84h-3.79c-.46-1.29-1.42-2.57-3.42-2.57-2.44,0-3.9,2.11-3.9,4.66s1.46,4.66,3.9,4.66c2,0,2.96-1.29,3.42-2.57h3.79c-.57,3.27-3.07,5.84-7.26,5.84-4.77,0-7.6-3.64-7.6-7.93Z"/><path class="cls-2" d="M63.35,19.72c0-3.36,2.46-5.97,6.06-5.97s6.06,2.61,6.06,5.97-2.46,5.97-6.06,5.97-6.06-2.62-6.06-5.97ZM71.85,19.72c0-1.46-.83-2.96-2.44-2.96s-2.44,1.5-2.44,2.96.83,2.96,2.44,2.96,2.44-1.5,2.44-2.96Z"/><path class="cls-2" d="M77.16,14.01h3.66v6.54c0,1.11.44,2.03,1.61,2.03s1.7-.76,1.7-2v-6.56h3.66v11.42h-3.51v-1.63c-.5,1.13-1.48,1.9-3.14,1.9-2.72,0-3.99-1.9-3.99-4.71v-6.99h0Z"/><path class="cls-2" d="M90.19,14.01h3.55v1.63c.5-1.13,1.46-1.9,3.12-1.9,2.72,0,4.03,1.9,4.03,4.71v6.97h-3.66v-6.51c0-1.11-.48-2.03-1.66-2.03s-1.72.76-1.72,2v6.54h-3.66v-11.42h0Z"/><path class="cls-2" d="M103.85,21.35v-4.42h-1.66v-2.92h1.66v-3.01h3.66v3.01h2.42v2.92h-2.42v4.25c0,.87.44,1.35,1.31,1.35.5,0,.89-.09,1.13-.17v2.92c-.5.2-1.37.3-2.29.3-2.51,0-3.81-1.42-3.81-4.23Z"/><path class="cls-2" d="M115.03,10.18l1.74,9.22,2.7-9.22h3.7l2.7,9.22,1.74-9.22h4.1l-3.86,15.25h-3.62l-2.92-10.7-2.92,10.7h-3.62l-3.86-15.25h4.12Z"/><path class="cls-2" d="M137.01,18.48l2.31-.2v-.48c0-.81-.5-1.37-1.55-1.37s-1.61.54-1.7,1.26h-3.46c.35-2.38,2.31-3.94,5.19-3.94,3.31,0,5.19,1.72,5.19,4.4v7.28h-3.55v-1.53c-.44,1-1.68,1.79-3.29,1.79-2.38,0-3.9-1.39-3.9-3.57,0-2.31,1.55-3.38,4.77-3.64h-.01ZM137.29,23.25c1.29,0,2.03-.74,2.03-2.05v-.63l-1.72.17c-1.05.11-1.81.37-1.81,1.24,0,.78.59,1.26,1.5,1.26h0Z"/><path class="cls-2" d="M144,14.01h3.73l2.29,7.15,2.29-7.15h3.73l-4.16,11.42h-3.7l-4.16-11.42h-.02,0Z"/><path class="cls-2" d="M162.39,13.75c3.7,0,5.67,2.61,5.67,6.06v.7h-8.02c.11,1.39,1,2.42,2.46,2.42,1.22,0,1.87-.54,2.18-1.22h3.29c-.5,2.33-2.66,3.99-5.43,3.99-3.79,0-6.01-2.55-6.01-5.97s2.35-5.97,5.86-5.97h0ZM164.59,18.22c-.17-1.15-1-1.94-2.2-1.94s-2.03.81-2.29,1.94h4.49,0Z"/><path class="cls-6" d="M35.71,17.85c0,4.1-1.38,7.88-3.71,10.9-.62.8-1.3,1.54-2.04,2.22-.05.04-.09.08-.14.13-.1.09-.21.19-.32.28-.04.03-.08.07-.11.1-.02.02-.04.03-.06.05-.05.04-.1.08-.15.12-.5.41-1.01.79-1.55,1.14-.15.1-.31.2-.47.29-.02,0-.04.02-.05.03-.03.02-.07.04-.1.06-.06.04-.13.08-.19.11-.01,0-.02,0-.03.02-.15.08-.29.17-.44.25-.04.02-.07.04-.11.06-.05.02-.09.05-.14.07-.07.04-.14.07-.21.11-.48.24-.98.47-1.49.67-.17.07-.34.13-.51.19h-.02c-.12.04-.24.08-.35.12-.05.02-.1.03-.14.05-.07.02-.15.05-.23.07-.05.02-.1.03-.15.05-.03,0-.05.02-.08.02-.18.05-.35.1-.53.15-.5.13-1,.24-1.51.32-.18.03-.37.06-.56.09h-.08c-.26.04-.53.06-.8.09-.52.05-1.05.07-1.58.07-9.87.02-17.86-7.98-17.86-17.84S7.99,0,17.86,0s17.85,7.99,17.85,17.85Z"/><path class="cls-1" d="M31.34,32.43s-.07.07-.11.1c-.1.09-.21.19-.32.28-.04.03-.08.07-.11.1-.02.02-.04.03-.06.05-.05.04-.1.08-.15.12-.41.34-.84.66-1.28.96l-.92-1.77-7.49-14.4c-.1-.2-.03-.44.17-.54l1.54-.8c.2-.1.44-.03.54.17l7.22,13.89.91,1.75.05.1h.01Z"/><path class="cls-3" d="M28.56,34.53s-.03.02-.04.03c-.03.02-.07.04-.1.06-.06.04-.13.08-.19.11-.01,0-.02,0-.03.02-.15.08-.29.17-.44.25-.04.02-.07.04-.11.06-.05.02-.09.05-.14.07-.07.04-.14.07-.21.11-.33.17-.66.32-1,.47l-.87-1.67-7.58-14.57c-.1-.2-.03-.44.17-.54l1.54-.8c.2-.1.44-.03.54.17l7.54,14.5.91,1.75v-.02h.01Z"/><path class="cls-5" d="M25.47,36.03c-.06.02-.12.04-.17.06h-.02c-.12.04-.24.08-.35.12-.05.02-.1.03-.14.05-.07.02-.15.05-.23.07-.05.02-.1.03-.15.05-.03,0-.05.02-.08.02-.18.05-.35.1-.53.15-.27.07-.53.13-.81.19l-.81-1.57-7.36-14.15c-.1-.2-.03-.44.17-.54l1.54-.8c.2-.1.44-.03.54.17l7.55,14.52.85,1.64v.02Z"/><path class="cls-4" d="M15.19,18.7l.19-.1c.73-.38,1.63-.1,2.01.64-.38-.73-.1-1.63.64-2.01l.19-.1c.73-.38,1.63-.1,2.01.64-.38-.73-.1-1.63.64-2.01l.19-.1c.36-.19.75-.21,1.11-.11l-2.39-1.53-4.92-3.14-.26,5.83-.13,2.83c.12-.35.37-.66.72-.85h0Z"/><path class="cls-7" d="M15.53,12.19c.25-.13.48-.28.7-.43l-1.38-.88-.07,1.63c.25-.09.5-.19.75-.32Z"/></svg>